<svg width="720" height="720" viewBox="0 0 720 720" fill="none" xmlns="http://www.w3.org/2000/svg">
<rect width="720" height="720" fill="#312783"/>
<g filter="url(#filter0_d_1102_3)">
<path d="M621.632 573.367C605.622 585.936 585.562 581.891 573.547 579.465C568.021 578.348 549.441 574.018 533.589 559.824C494.708 525.007 502.692 458.127 518.692 420.312C524.511 406.551 532.742 387.878 551.201 382.384C561.345 379.363 576.074 379.88 585.739 388.478C595.641 397.286 593.02 408.161 597.931 450.786C600.939 476.856 602.442 489.891 606.651 498.173C618.755 521.915 636.51 523.829 637.889 541.538C639.28 559.135 622.88 572.389 621.632 573.367Z" fill="#FFD405"/>
<path d="M114.559 199.015C103.344 201.711 120.671 266.779 107.776 361.609C102.981 396.859 94.9366 438.288 94.9366 438.288C89.2892 457.352 85.6812 476.961 84.1733 496.787C82.6976 516.484 81.7525 530.86 86.8222 548.895C90.4814 561.93 95.2019 578.717 110.737 591.007C128.548 605.09 149.344 604.377 160.298 604C169.288 603.693 193.221 602.883 211.926 585.23C221.968 575.752 226.302 565.393 229.617 557.456C232.875 549.635 236.088 539.235 238.201 507.28C239.9 481.536 239.556 462.165 239.519 460.405C238.457 407.939 232.228 413.679 234.239 387.781C236.828 354.37 248.057 333.677 234.5 309.487C233.536 307.692 232.447 305.967 231.241 304.324C213.183 279.837 186.489 278.166 167.039 268.767C126.723 249.284 124.047 196.739 114.559 199.015Z" fill="#FFE14D"/>
<path d="M488.269 482.62C514.34 492.121 547.16 474.156 562.532 455.535C570.912 445.367 580.264 427.551 584.37 419.716C588.477 411.881 591.512 405.336 593.551 400.755C594.696 393.409 595.18 385.299 593.481 375.923C591.968 367.599 588.09 346.217 570.67 337.851C563.244 334.295 552.644 332.731 542.798 336.194C539.917 337.227 537.186 338.636 534.674 340.384C521.695 349.229 515.634 364.233 511.961 373.856C496.407 414.581 498.083 417.435 490.909 424.977C488.875 427.118 471.897 444.995 454.215 438.943C443.117 435.167 435.226 423.171 433.648 408.581C438.031 419.771 443.455 430.526 449.849 440.703C463.773 462.886 472.618 476.908 488.269 482.62Z" fill="#FFD405"/>
<path d="M408.896 209.801C412.229 201.314 416.81 188.614 417.387 172.139C408.421 142.857 401.028 133.499 392.346 127.187C388.896 124.677 370.885 112.322 349.982 117.08C329.457 121.735 318.893 140.082 313.065 150.575C293.14 186.422 297.847 226.36 305.737 274.069C309.331 295.809 312.986 315.501 316.631 333.359C331.803 326.688 343.167 316.223 352.678 307.289C381.122 280.549 392.081 252.631 408.896 209.801Z" fill="#FFEA81"/>
<path d="M361.308 546.916C361.294 546.766 361.256 546.62 361.196 546.483C358.762 540.85 357.821 536.893 357.696 536.944C357.486 537.028 361.169 546.967 361.308 546.916Z" fill="#FFEA81"/>
<path d="M485.653 460.778C476.878 455.397 460.565 435.136 458.573 424.96C458.512 424.667 458.247 423.251 457.814 421.091C457.083 417.367 455.868 411.515 454.188 404.369C452.526 397.293 451.036 392.191 450.882 391.124C448.289 373.173 445.659 351.042 443.229 329.348C442.102 332.08 440.901 334.711 439.649 337.262C438.82 338.942 427.447 360.129 412.056 376.06C386.056 402.963 346.355 417.181 341.97 418.708C341.085 420.481 339.591 422.925 337.78 422.897C334.4 422.846 332.561 414.238 331.728 414.434C330.257 414.779 335.531 442.45 339.74 464.298C342.068 476.476 343.329 483.166 344.935 490.521C345.792 494.441 346.527 497.505 346.732 498.37C346.732 498.37 348.594 506.317 350.703 513.985C354.809 529.054 360.321 543.821 361.187 546.507C363.857 552.778 367.402 558.638 371.718 563.914C377.062 570.191 383.483 575.466 390.679 579.49C401.954 585.854 411.987 587.437 417.769 588.294C438.471 591.362 454.937 586.492 464.499 583.555C482.963 577.88 495.318 569.523 504.456 563.234C513.87 556.763 534.251 542.462 550.642 517.052C554.637 510.856 560.777 496.648 573.226 468.301C578.789 455.639 581.992 447.767 585.036 437.65C588.491 426.166 590.567 416.017 592.289 407.6C592.755 405.393 593.174 403.121 593.542 400.775C554.004 452.948 504.978 472.631 485.653 460.778Z" fill="#FFEA81"/>
<path d="M601.819 266.839C599.268 294.669 565.418 315.111 540.447 304.189C522.687 296.415 512.133 273.957 517.608 253.446C523.404 231.733 546.103 216.203 568.896 221.398C590.292 226.3 603.583 247.622 601.819 266.839Z" fill="#FFDD34"/>
<path d="M434.788 252.812C434.323 249.149 430.897 221.877 421.6 186.967C420.152 181.525 418.751 176.618 417.387 172.163C416.805 188.638 412.228 201.343 408.895 209.825C392.08 252.654 381.121 280.586 352.654 307.318C343.157 316.247 331.779 326.712 316.607 333.388C310.03 336.294 303.084 338.282 295.965 339.295C285.993 340.725 273.512 342.508 261.725 336.335C231.884 320.702 230.813 266.769 230.315 241.733C229.7 210.793 235.501 200.453 228.853 173.145C225.05 157.531 220.985 141.838 206.61 131.112C191.103 119.548 169.004 117.802 152.091 125.297C129.102 135.478 121.677 160.063 115.872 179.299C106.743 209.559 109.88 234.996 116.533 284.655C121.374 320.804 123.795 338.881 131.677 355.766C136.658 366.441 154.791 403.903 196.852 425.564C242.242 448.934 286.445 438.958 310.764 433.478C320.504 431.325 330.074 428.467 339.4 424.926C360.284 416.98 387.816 402.529 412.024 376.082C419.798 367.586 433.904 351.949 443.215 329.393C439.77 298.524 436.725 268.59 434.788 252.812Z" fill="#FFD405"/>
</g>
<defs>
<filter id="filter0_d_1102_3" x="75" y="108" width="586.972" height="520.148" filterUnits="userSpaceOnUse" color-interpolation-filters="sRGB">
<feFlood flood-opacity="0" result="BackgroundImageFix"/>
<feColorMatrix in="SourceAlpha" type="matrix" values="0 0 0 0 0 0 0 0 0 0 0 0 0 0 0 0 0 0 127 0" result="hardAlpha"/>
<feOffset dx="8" dy="8"/>
<feGaussianBlur stdDeviation="8"/>
<feComposite in2="hardAlpha" operator="out"/>
<feColorMatrix type="matrix" values="0 0 0 0 0 0 0 0 0 0 0 0 0 0 0 0 0 0 0.25 0"/>
<feBlend mode="normal" in2="BackgroundImageFix" result="effect1_dropShadow_1102_3"/>
<feBlend mode="normal" in="SourceGraphic" in2="effect1_dropShadow_1102_3" result="shape"/>
</filter>
</defs>
</svg>
